<svg width="1000" height="50" xmlns="http://www.w3.org/2000/svg">
  <defs>
    <pattern id="indiaBorder" patternUnits="userSpaceOnUse" width="100" height="50">
      <g fill="#fff8f0">
        <!-- Decorative border with Indian motifs -->
        <path d="M0,0 L100,0 L100,50 L0,50 Z" fill="#fff8f0"/>
        <path d="M0,0 L20,0 L10,10 L0,0 Z" fill="#d35400" fill-opacity="0.7"/>
        <path d="M20,0 L40,0 L30,10 L20,0 Z" fill="#d35400" fill-opacity="0.7"/>
        <path d="M40,0 L60,0 L50,10 L40,0 Z" fill="#d35400" fill-opacity="0.7"/>
        <path d="M60,0 L80,0 L70,10 L60,0 Z" fill="#d35400" fill-opacity="0.7"/>
        <path d="M80,0 L100,0 L90,10 L80,0 Z" fill="#d35400" fill-opacity="0.7"/>
        
        <!-- Lotus-inspired elements -->
        <circle cx="10" cy="25" r="5" fill="#f39c12" fill-opacity="0.6"/>
        <circle cx="30" cy="25" r="5" fill="#f39c12" fill-opacity="0.6"/>
        <circle cx="50" cy="25" r="5" fill="#f39c12" fill-opacity="0.6"/>
        <circle cx="70" cy="25" r="5" fill="#f39c12" fill-opacity="0.6"/>
        <circle cx="90" cy="25" r="5" fill="#f39c12" fill-opacity="0.6"/>
        
        <!-- Bottom triangles -->
        <path d="M0,50 L20,50 L10,40 L0,50 Z" fill="#8d4925" fill-opacity="0.7"/>
        <path d="M20,50 L40,50 L30,40 L20,50 Z" fill="#8d4925" fill-opacity="0.7"/>
        <path d="M40,50 L60,50 L50,40 L40,50 Z" fill="#8d4925" fill-opacity="0.7"/>
        <path d="M60,50 L80,50 L70,40 L60,50 Z" fill="#8d4925" fill-opacity="0.7"/>
        <path d="M80,50 L100,50 L90,40 L80,50 Z" fill="#8d4925" fill-opacity="0.7"/>
      </g>
    </pattern>
  </defs>
  <rect width="1000" height="50" fill="url(#indiaBorder)"/>
</svg>