<svg width="200" height="200" xmlns="http://www.w3.org/2000/svg">
  <defs>
    <pattern id="indiaPattern" patternUnits="userSpaceOnUse" width="200" height="200">
      <rect width="200" height="200" fill="#fff8f0"/>
      <g fill="#d35400" fill-opacity="0.05">
        <!-- Paisley pattern elements -->
        <path d="M20,20 C30,10 40,10 50,20 C60,30 60,40 50,50 C40,60 30,60 20,50 C10,40 10,30 20,20 Z M30,30 C35,25 40,25 45,30 C50,35 50,40 45,45 C40,50 35,50 30,45 C25,40 25,35 30,30 Z"/>
        <path d="M120,20 C130,10 140,10 150,20 C160,30 160,40 150,50 C140,60 130,60 120,50 C110,40 110,30 120,20 Z M130,30 C135,25 140,25 145,30 C150,35 150,40 145,45 C140,50 135,50 130,45 C125,40 125,35 130,30 Z"/>
        <path d="M20,120 C30,110 40,110 50,120 C60,130 60,140 50,150 C40,160 30,160 20,150 C10,140 10,130 20,120 Z M30,130 C35,125 40,125 45,130 C50,135 50,140 45,145 C40,150 35,150 30,145 C25,140 25,135 30,130 Z"/>
        <path d="M120,120 C130,110 140,110 150,120 C160,130 160,140 150,150 C140,160 130,160 120,150 C110,140 110,130 120,120 Z M130,130 C135,125 140,125 145,130 C150,135 150,140 145,145 C140,150 135,150 130,145 C125,140 125,135 130,130 Z"/>
        
        <!-- Mandala-inspired elements -->
        <circle cx="75" cy="75" r="5"/>
        <circle cx="75" cy="75" r="15" fill="none" stroke="#d35400" stroke-opacity="0.05" stroke-width="1"/>
        <circle cx="75" cy="75" r="25" fill="none" stroke="#d35400" stroke-opacity="0.05" stroke-width="1"/>
        
        <!-- Lotus-inspired elements -->
        <path d="M75,0 C85,15 95,15 100,0 M75,0 C65,15 55,15 50,0"/>
        <path d="M75,150 C85,135 95,135 100,150 M75,150 C65,135 55,135 50,150"/>
        <path d="M0,75 C15,85 15,95 0,100 M0,75 C15,65 15,55 0,50"/>
        <path d="M150,75 C135,85 135,95 150,100 M150,75 C135,65 135,55 150,50"/>
      </g>
    </pattern>
  </defs>
  <rect width="200" height="200" fill="url(#indiaPattern)"/>
</svg>